<?xml version="1.0" encoding="UTF-8"?>
<svg xmlns="http://www.w3.org/2000/svg" viewBox="0 0 960 560" width="960" height="560">
  <rect x="0" y="0" width="960" height="560" fill="#f8fafc" />
  <g id="curve_panel" data-fe-object-id="curve_panel">
    <rect x="36" y="36" width="888" height="488" rx="22" fill="#ffffff" stroke="#d6deea" stroke-width="2" />
    <text x="72" y="86" font-size="34" font-weight="700" font-family="Aptos, Calibri, Segoe UI, Arial, sans-serif" fill="#0f172a" data-fe-object-id="curve_title">Curve Release Validation</text>
    <text x="72" y="118" font-size="16" font-family="Aptos, Calibri, Segoe UI, Arial, sans-serif" fill="#64748b">Import, text edit, move, add note, delete, export</text>

    <line x1="110" y1="432" x2="834" y2="432" stroke="#94a3b8" stroke-width="2" />
    <line x1="110" y1="432" x2="110" y2="154" stroke="#94a3b8" stroke-width="2" />

    <text x="108" y="460" font-size="16" fill="#475569">0</text>
    <text x="252" y="460" font-size="16" fill="#475569">1</text>
    <text x="396" y="460" font-size="16" fill="#475569">2</text>
    <text x="540" y="460" font-size="16" fill="#475569">3</text>
    <text x="684" y="460" font-size="16" fill="#475569">4</text>
    <text x="824" y="460" font-size="16" fill="#475569">5</text>

    <text x="64" y="434" font-size="16" fill="#475569">0.0</text>
    <text x="64" y="364" font-size="16" fill="#475569">0.2</text>
    <text x="64" y="294" font-size="16" fill="#475569">0.4</text>
    <text x="64" y="224" font-size="16" fill="#475569">0.6</text>
    <text x="64" y="154" font-size="16" fill="#475569">0.8</text>

    <g id="curve_series_a_group" data-fe-object-id="curve_series_a_group">
      <path d="M 140 398 C 220 332, 286 324, 360 300 S 522 242, 610 260 S 764 238, 820 178" fill="none" stroke="#2563eb" stroke-width="5" stroke-linecap="round" stroke-linejoin="round" data-fe-object-id="curve_series_a" />
      <circle cx="140" cy="398" r="7" fill="#2563eb" />
      <circle cx="262" cy="328" r="7" fill="#2563eb" />
      <circle cx="412" cy="282" r="7" fill="#2563eb" />
      <circle cx="560" cy="256" r="7" fill="#2563eb" />
      <circle cx="708" cy="244" r="7" fill="#2563eb" />
      <circle cx="820" cy="178" r="7" fill="#2563eb" />
    </g>
    <g id="curve_series_b_group" data-fe-object-id="curve_series_b_group">
      <path d="M 140 412 C 220 392, 292 350, 360 326 S 510 284, 610 220 S 750 210, 820 208" fill="none" stroke="#f97316" stroke-width="5" stroke-linecap="round" stroke-linejoin="round" data-fe-object-id="curve_series_b" />
      <circle cx="140" cy="412" r="7" fill="#f97316" />
      <circle cx="262" cy="372" r="7" fill="#f97316" />
      <circle cx="412" cy="308" r="7" fill="#f97316" />
      <circle cx="560" cy="242" r="7" fill="#f97316" />
      <circle cx="708" cy="216" r="7" fill="#f97316" />
      <circle cx="820" cy="208" r="7" fill="#f97316" />
    </g>

    <g id="curve_legend_group" data-fe-object-id="curve_legend_group">
      <rect x="650" y="110" width="214" height="104" rx="18" fill="#f8fafc" stroke="#d6deea" stroke-width="2" />
      <line x1="682" y1="146" x2="742" y2="146" stroke="#2563eb" stroke-width="5" stroke-linecap="round" />
      <text x="762" y="152" font-size="20" font-family="Aptos, Calibri, Segoe UI, Arial, sans-serif" fill="#0f172a">Model A</text>
      <line x1="682" y1="184" x2="742" y2="184" stroke="#f97316" stroke-width="5" stroke-linecap="round" />
      <text x="762" y="190" font-size="20" font-family="Aptos, Calibri, Segoe UI, Arial, sans-serif" fill="#0f172a">Model B</text>
    </g>

    <text x="650" y="490" font-size="18" font-family="Aptos, Calibri, Segoe UI, Arial, sans-serif" fill="#64748b" data-fe-object-id="curve_note_delete">Draft note: remove before GitHub release</text>
  </g>
</svg>
